# xmcd
# 
# Track frame offsets:
#     150
#     18208
#     38478
#     54183
#     74650
#     94820
#     117488
#     138148
#     154770
#     170938
#     188720
#     208383
#     231350
# 
# Disc length: 3295
# 
# Revision: 3
# Processed by: cddbd v1.5.2PL0 Copyright (c) Steve Scherf et al.
# Submitted via: fre:ac v1.0.17
# 
DISCID=b60cdd0d
DTITLE=高橋真梨子 - Ｓｉｎｇｌｅ　Ｃｏｌｌｅｃｔｉｏｎ Disc 1
DYEAR=2005
DGENRE=Ballad
TTITLE0=あなたの空を翔びたい（西武流通グループ・イメージソング）
TTITLE1=ハート＆ハード〜時には強く時には優しく（いすゞＮＥＷジェミニＣＭソング）
TTITLE2=サンライズ・サンセット
TTITLE3=アフロディーテ（グリコチョコレート　アフロス　イメージソング）
TTITLE4=愛はルフラン（ＴＢＳ系ドラマ「拳骨にくちづけ」主題歌）
TTITLE5=夜明けのララバイ
TTITLE6=ｆｏｒ　ｙｏｕ…
TTITLE7=ｃｏｍｅ　ｂａｃｋ　ｔｏ　ｍｅ〜フラワーホテルの女客（ＣＸ系ドラマ「花祭」主題歌）
TTITLE8=桃色吐息（カメリアダイアモンドＣＭソング）
TTITLE9=もいちどロマンス〜街角物語（ＡＮＢ系ドラマ「人妻捜査官」主題歌）
TTITLE10=ジュン
TTITLE11=蜃気楼（ＣＸ系ドラマ「夏樹静子サスペンス」主題歌）
TTITLE12=愛し方を間違えて
EXTD=YEAR: 2005
EXTT0=
EXTT1=
EXTT2=
EXTT3=
EXTT4=
EXTT5=
EXTT6=
EXTT7=
EXTT8=
EXTT9=
EXTT10=
EXTT11=
EXTT12=
PLAYORDER=
